<svg xmlns="http://www.w3.org/2000/svg" viewBox="0 0 32 32">
  <defs>
    <style>
      .cls-1 {
        fill: none;
      }

      .cls-2 {
        fill: #2d2f38;
      }
    </style>
  </defs>
  <g id="account_USD" transform="translate(-155 -154)">
    <path id="oval" class="cls-1" d="M16,0A16,16,0,1,1,0,16,16,16,0,0,1,16,0Z" transform="translate(155 154)"/>
    <path id="currency" class="cls-2" d="M-.016,2.88a.449.449,0,0,1-.317-.115.422.422,0,0,1-.125-.326V1.094A6.055,6.055,0,0,1-2.771.47,3.926,3.926,0,0,1-4.25-.8,3.116,3.116,0,0,1-4.8-2.419a.368.368,0,0,1,.115-.269A.391.391,0,0,1-4.394-2.8h.922a.5.5,0,0,1,.5.384,2.31,2.31,0,0,0,.989,1.392A3.962,3.962,0,0,0,.349-.442a4.205,4.205,0,0,0,2.438-.576,1.85,1.85,0,0,0,.806-1.594A1.515,1.515,0,0,0,3.2-3.686a3.266,3.266,0,0,0-1.171-.739Q1.251-4.742-.3-5.2a11.9,11.9,0,0,1-2.362-.9A3.482,3.482,0,0,1-3.991-7.286a3.277,3.277,0,0,1-.442-1.776,3.168,3.168,0,0,1,1.056-2.419A4.812,4.812,0,0,1-.458-12.634v-1.325a.422.422,0,0,1,.125-.326A.449.449,0,0,1-.016-14.4H.675a.4.4,0,0,1,.307.125.449.449,0,0,1,.115.317v1.344a5.274,5.274,0,0,1,2.112.691,3.962,3.962,0,0,1,1.334,1.258,3.014,3.014,0,0,1,.49,1.45.391.391,0,0,1-.115.288.391.391,0,0,1-.288.115H3.67a.53.53,0,0,1-.3-.1A.43.43,0,0,1,3.19-9.2a1.933,1.933,0,0,0-.922-1.363A3.558,3.558,0,0,0,.253-11.1a3.71,3.71,0,0,0-2.074.509,1.691,1.691,0,0,0-.768,1.507,1.643,1.643,0,0,0,.355,1.094,2.978,2.978,0,0,0,1.094.749A19.675,19.675,0,0,0,1-6.49a15.824,15.824,0,0,1,2.573.922,3.491,3.491,0,0,1,1.4,1.142,3.076,3.076,0,0,1,.461,1.757A3.3,3.3,0,0,1,4.275-.038,5.369,5.369,0,0,1,1.1,1.114V2.438a.449.449,0,0,1-.115.317.4.4,0,0,1-.307.125Z" transform="translate(170.464 175.867)"/>
  </g>
</svg>
