<svg xmlns="http://www.w3.org/2000/svg" viewBox="0 0 32 32">
  <defs>
    <style>
      .cls-1 {
        fill: none;
      }

      .cls-2 {
        fill: #2d2f38;
      }
    </style>
  </defs>
  <g id="account_RUB" transform="translate(-67 -154)">
    <path id="oval" class="cls-1" d="M16,0A16,16,0,1,1,0,16,16,16,0,0,1,16,0Z" transform="translate(67 154)"/>
    <path id="currency" class="cls-2" d="M-3.38.84A.429.429,0,0,1-3.7.715.429.429,0,0,1-3.822.4V-2.1H-5.3a.429.429,0,0,1-.317-.125.429.429,0,0,1-.125-.317v-.422a.429.429,0,0,1,.125-.317A.429.429,0,0,1-5.3-3.4h1.478V-4.5H-5.3a.429.429,0,0,1-.317-.125.429.429,0,0,1-.125-.317v-.614a.429.429,0,0,1,.125-.317A.429.429,0,0,1-5.3-6h1.478v-6.144a.476.476,0,0,1,.115-.336A.422.422,0,0,1-3.38-12.6H1.477a5.117,5.117,0,0,1,3.408,1.046A3.761,3.761,0,0,1,6.124-8.51,3.657,3.657,0,0,1,4.885-5.525,5.182,5.182,0,0,1,1.477-4.5H-1.979V-3.4H1.784a.429.429,0,0,1,.317.125.429.429,0,0,1,.125.317v.422a.429.429,0,0,1-.125.317.429.429,0,0,1-.317.125H-1.979V.4a.414.414,0,0,1-.134.317A.462.462,0,0,1-2.44.84ZM1.381-6a3.228,3.228,0,0,0,2.17-.634A2.358,2.358,0,0,0,4.28-8.51a2.4,2.4,0,0,0-.73-1.872,3.132,3.132,0,0,0-2.17-.662H-2V-6Z" transform="translate(83.409 176.2)"/>
  </g>
</svg>
