<svg xmlns="http://www.w3.org/2000/svg" viewBox="0 0 32 32">
  <defs>
    <style>
      .cls-1 {
        fill: none;
      }

      .cls-2 {
        fill: #2d2f38;
      }
    </style>
  </defs>
  <g id="account_EUR" transform="translate(-242 -154)">
    <path id="oval" class="cls-1" d="M16,0A16,16,0,1,1,0,16,16,16,0,0,1,16,0Z" transform="translate(242 154)"/>
    <path id="currency" class="cls-2" d="M6.038-3.276a.424.424,0,0,1,.3.115.323.323,0,0,1,.106.288A3.552,3.552,0,0,1,5.789-.991,4.395,4.395,0,0,1,3.974.478a6.775,6.775,0,0,1-2.909.566A5.233,5.233,0,0,1-2.717-.233a5.255,5.255,0,0,1-1.5-3.523H-5.462a.429.429,0,0,1-.317-.125A.429.429,0,0,1-5.9-4.2v-.614a.429.429,0,0,1,.125-.317.429.429,0,0,1,.317-.125h1.229v-1.21H-5.462a.429.429,0,0,1-.317-.125A.429.429,0,0,1-5.9-6.9v-.634a.429.429,0,0,1,.125-.317.429.429,0,0,1,.317-.125h1.248A5.329,5.329,0,0,1-2.7-11.5,5.2,5.2,0,0,1,1.066-12.78a6.775,6.775,0,0,1,2.909.566,4.428,4.428,0,0,1,1.814,1.459,3.528,3.528,0,0,1,.653,1.891v.038a.327.327,0,0,1-.125.259.42.42,0,0,1-.278.106H5.059a.427.427,0,0,1-.3-.1A.779.779,0,0,1,4.579-8.9a2.794,2.794,0,0,0-1.21-1.766,4.385,4.385,0,0,0-2.3-.538q-3.11,0-3.418,3.226h3.84a.429.429,0,0,1,.317.125.429.429,0,0,1,.125.317V-6.9a.429.429,0,0,1-.125.317.429.429,0,0,1-.317.125H-2.39v1.21H1.488a.441.441,0,0,1,.326.115.441.441,0,0,1,.115.326V-4.2a.449.449,0,0,1-.115.317.422.422,0,0,1-.326.125h-3.84Q-2.045-.55,1.066-.55a4.385,4.385,0,0,0,2.3-.538,2.784,2.784,0,0,0,1.21-1.747.779.779,0,0,1,.182-.346.427.427,0,0,1,.3-.1Z" transform="translate(256.97 176.38)"/>
  </g>
</svg>
