<svg xmlns="http://www.w3.org/2000/svg" viewBox="0 0 24 24">
  <defs>
    <style>
      .cls-1 {
        fill: none;
      }

      .cls-2 {
        fill: #bebebe;
      }
    </style>
  </defs>
  <g id="decline" transform="translate(-1188 -1382)">
    <rect id="placeholder" class="cls-1" width="24" height="24" transform="translate(1188 1382)"/>
    <g id="icon" transform="translate(1210.142 1384.142) rotate(90)">
      <path id="Path" class="cls-2" d="M9.1,4.1H5.9V.9A.9.9,0,1,0,4.1.9V4.1H.9a.9.9,0,1,0,0,1.8H4.1V9.1a.9.9,0,0,0,1.8,0V5.9H9.1a.9.9,0,0,0,0-1.8" transform="translate(2.929 10) rotate(-45)"/>
      <path id="Oval_5" data-name="Oval 5" class="cls-2" d="M11,22A11,11,0,0,1,3.222,3.222,11,11,0,1,1,18.778,18.778,10.928,10.928,0,0,1,11,22ZM11,2a9,9,0,1,0,9,9A9.01,9.01,0,0,0,11,2Z" transform="translate(-1 -1)"/>
    </g>
  </g>
</svg>
