<svg xmlns="http://www.w3.org/2000/svg" viewBox="0 0 32 32">
  <defs>
    <style>
      .cls-1 {
        fill: none;
      }

      .cls-2 {
        fill: #999;
      }
    </style>
  </defs>
  <g id="iOS_icon" data-name="iOS icon" transform="translate(-59 -813)">
    <rect id="placeholder" class="cls-1" width="32" height="32" transform="translate(59 813)"/>
    <path id="icon" class="cls-2" d="M2.617,21.838C.491,18.73-1.166,13.081,1.055,9.236A6.1,6.1,0,0,1,6.189,6.1c1.629-.033,3.142,1.1,4.144,1.1.982,0,2.851-1.356,4.779-1.153a5.811,5.811,0,0,1,4.582,2.476,5.687,5.687,0,0,0-2.705,4.767,5.488,5.488,0,0,0,3.352,5.05A12.6,12.6,0,0,1,18.6,21.9c-1.027,1.535-2.1,3.036-3.812,3.064-1.66.038-2.219-.978-4.122-.978-1.923,0-2.518.95-4.11,1.016l-.083,0C4.883,25,3.664,23.333,2.617,21.838Zm7.52-16.073A5.317,5.317,0,0,1,11.45,1.905,5.687,5.687,0,0,1,15.132,0a5.6,5.6,0,0,1-1.279,4.007A4.809,4.809,0,0,1,10.38,5.773C10.3,5.773,10.218,5.771,10.137,5.765Z" transform="translate(65 815)"/>
  </g>
</svg>
