<svg xmlns="http://www.w3.org/2000/svg" xmlns:xlink="http://www.w3.org/1999/xlink" viewBox="0 0 48 48">
  <defs>
    <style>
      .cls-1 {
        fill: #fff;
      }

      .cls-2 {
        fill: #c3c3c3;
      }

      .cls-3 {
        clip-path: url(#clip-path);
      }
    </style>
    <clipPath id="clip-path">
      <rect id="Mask" class="cls-1" width="24" height="17.999" rx="2"/>
    </clipPath>
  </defs>
  <g id="notification_centre" data-name="notification centre" transform="translate(-1119 -26)">
    <circle id="oval" class="cls-2" cx="24" cy="24" r="24" transform="translate(1119 26)"/>
    <g id="icon" transform="translate(1131 41)">
      <path id="Subtraction_1" data-name="Subtraction 1" class="cls-1" d="M22,18H2a2,2,0,0,1-2-2V5.4l11.543,5.131a1.111,1.111,0,0,0,.454.1,1.129,1.129,0,0,0,.455-.1L24,5.4V16A2,2,0,0,1,22,18ZM12,8.4h0L.454,3.273A1.107,1.107,0,0,0,0,3.177V2A2,2,0,0,1,2,0H22a2,2,0,0,1,2,2V3.176a1.113,1.113,0,0,0-.448.1L12,8.4Z" transform="translate(0 0)"/>
    </g>
  </g>
</svg>
