<svg xmlns="http://www.w3.org/2000/svg" viewBox="0 0 24 24">
  <defs>
    <style>
      .cls-1, .cls-2 {
        fill: none;
      }

      .cls-1 {
        stroke-miterlimit: 10;
      }

      .cls-3, .cls-4 {
        stroke: none;
      }

      .cls-4 {
        fill: #c3c3c3;
      }
    </style>
  </defs>
  <g id="search" transform="translate(-945 -433)">
    <g id="icon_search" data-name="icon search" class="cls-1" transform="translate(947 435)">
      <path class="cls-3" d="M18.3,19.709l-4.217-4.217a.989.989,0,0,1-.273-.515,8.448,8.448,0,1,1,1.164-1.164.989.989,0,0,1,.515.273L19.709,18.3A.994.994,0,0,1,18.3,19.709Z"/>
      <path class="cls-4" d="M 8.449199676513672 14.89750194549561 C 9.93982982635498 14.89750194549561 11.39340972900391 14.37707233428955 12.54217052459717 13.43209266662598 L 13.03040790557861 13.03045845031738 L 13.43208980560303 12.54216194152832 C 14.37707042694092 11.39342212677002 14.89750003814697 9.939842224121094 14.89750003814697 8.449202537536621 C 14.89750003814697 4.893102169036865 12.00479984283447 2.000002384185791 8.449199676513672 2.000002384185791 C 4.893100261688232 2.000002384185791 2 4.893102169036865 2 8.449202537536621 C 2 12.00480270385742 4.893100261688232 14.89750194549561 8.449199676513672 14.89750194549561 M 19.00620079040527 20.00002288818359 C 18.75172996520996 20.00002288818359 18.49724960327148 19.90305328369141 18.30330085754395 19.70910263061523 L 14.08590030670166 15.49170207977295 C 13.93984985351562 15.34564208984375 13.84881019592285 15.16538238525391 13.81274032592773 14.97664260864258 C 12.3538703918457 16.17673301696777 10.48556041717529 16.89750289916992 8.449199676513672 16.89750289916992 C 3.782700061798096 16.89750289916992 6.1035152043587e-08 13.11480236053467 6.1035152043587e-08 8.449202537536621 C 6.1035152043587e-08 3.782702445983887 3.782700061798096 2.397766138528823e-06 8.449199676513672 2.397766138528823e-06 C 13.11480045318604 2.397766138528823e-06 16.89750099182129 3.782702445983887 16.89750099182129 8.449202537536621 C 16.89750099182129 10.48556232452393 16.1767406463623 12.35387229919434 14.97663974761963 13.81274223327637 C 15.16538047790527 13.84881210327148 15.34564971923828 13.93984222412109 15.49170017242432 14.08590221405029 L 19.7091007232666 18.30330276489258 C 20.09700012207031 18.69120216369629 20.09700012207031 19.32120323181152 19.7091007232666 19.70910263061523 C 19.51515007019043 19.90305328369141 19.26067924499512 20.00002288818359 19.00620079040527 20.00002288818359 Z"/>
    </g>
    <rect id="Rectangle_38" data-name="Rectangle 38" class="cls-2" width="24" height="24" transform="translate(945 433)"/>
  </g>
</svg>
