<svg xmlns="http://www.w3.org/2000/svg" viewBox="0 0 24 24">
  <defs>
    <style>
      .cls-1 {
        fill: none;
      }

      .cls-2 {
        fill: #bebebe;
      }

      .cls-3 {
        fill: #c3c3c3;
      }
    </style>
  </defs>
  <g id="Symbol_62_1" data-name="Symbol 62 – 1" transform="translate(-351 -1161)">
    <rect id="placeholder" class="cls-1" width="24" height="24" transform="translate(351 1161)"/>
    <g id="icon" transform="translate(373.142 1163.142) rotate(90)">
      <path id="Oval_5" data-name="Oval 5" class="cls-2" d="M11,22A11,11,0,0,1,3.222,3.222,11,11,0,1,1,18.778,18.778,10.928,10.928,0,0,1,11,22ZM11,2a9,9,0,1,0,9,9A9.01,9.01,0,0,0,11,2Z" transform="translate(-1.142 -0.858)"/>
      <path id="icon-2" data-name="icon" class="cls-3" d="M4.772.114h0a1.5,1.5,0,0,1-.089,2.2L3.53,3.277H9.07a.847.847,0,1,1,0,1.685H3.534l1.148.991a1.439,1.439,0,0,1,.089,2.162L0,4.121Z" transform="translate(4.858 6.027)"/>
    </g>
  </g>
</svg>
