<svg id="twitter" xmlns="http://www.w3.org/2000/svg" viewBox="0 0 32 32">
  <defs>
    <style>
      .cls-1 {
        fill: #999;
      }
    </style>
  </defs>
  <path id="Shape" class="cls-1" d="M16,32A16,16,0,0,1,4.687,4.687,16,16,0,1,1,27.313,27.313,15.9,15.9,0,0,1,16,32ZM8.721,21.075h0a8.969,8.969,0,0,0,4.833,1.415,8.581,8.581,0,0,0,6.653-2.921,9.287,9.287,0,0,0,2.307-6.05c0-.135,0-.274-.012-.411a6.4,6.4,0,0,0,1.566-1.623,6.327,6.327,0,0,1-1.805.5,3.248,3.248,0,0,0,1.382-1.749,6.358,6.358,0,0,1-2,.766,3.153,3.153,0,0,0-5.451,2.16,2.927,2.927,0,0,0,.08.72,8.944,8.944,0,0,1-6.492-3.292,3.263,3.263,0,0,0-.423,1.589,3.172,3.172,0,0,0,1.406,2.628,3.187,3.187,0,0,1-1.428-.4v.034a3.148,3.148,0,0,0,2.525,3.085,2.867,2.867,0,0,1-.834.114,3.368,3.368,0,0,1-.594-.057,3.169,3.169,0,0,0,2.948,2.183A6.258,6.258,0,0,1,9.474,21.12,5.3,5.3,0,0,1,8.721,21.075Z"/>
</svg>
