<svg xmlns="http://www.w3.org/2000/svg" xmlns:xlink="http://www.w3.org/1999/xlink" viewBox="0 0 24 24">
  <defs>
    <style>
      .cls-1 {
        fill: #222b71;
      }

      .cls-2 {
        fill: none;
      }

      .cls-3 {
        clip-path: url(#clip-path);
      }

      .cls-4 {
        clip-path: url(#clip-path-2);
      }

      .cls-5 {
        fill: #fff;
      }
    </style>
    <clipPath id="clip-path">
      <rect id="Mask" class="cls-1" width="24" height="18" rx="2" transform="translate(0.073 0.315)"/>
    </clipPath>
    <clipPath id="clip-path-2">
      <path id="Clip_2" data-name="Clip 2" class="cls-2" d="M0,0V5.227H18V0H0Z"/>
    </clipPath>
  </defs>
  <g id="visa_icon_small" transform="translate(-70 -158)">
    <rect id="placeholder" class="cls-2" width="24" height="24" transform="translate(70 158)"/>
    <g id="icon" transform="translate(69 160)">
      <g id="Rectangle_6" data-name="Rectangle 6" transform="translate(0.927 0.685)">
        <rect id="Mask-2" data-name="Mask" class="cls-1" width="24" height="18" rx="4" transform="translate(0.073 0.315)"/>
      </g>
      <g id="Page_1" data-name="Page 1" transform="translate(4 7.481)">
        <path id="Clip_2-2" data-name="Clip 2" class="cls-2" d="M0,0V5.227H18V0H0Z" transform="translate(0 0.019)"/>
        <g id="Page_1-2" data-name="Page 1" class="cls-4" transform="translate(0 0.019)">
          <path id="Fill_1" data-name="Fill 1" class="cls-5" d="M10.327,5.226A4.812,4.812,0,0,1,8.71,4.958l.263-1.108L9,3.863a3.266,3.266,0,0,0,1.407.308h.058c.43-.006.867-.162.871-.495,0-.222-.189-.381-.755-.629C10.031,2.806,9.3,2.4,9.309,1.671,9.317.687,10.327,0,11.766,0a4.244,4.244,0,0,1,1.361.225L12.872,1.3a3.121,3.121,0,0,0-1.185-.239,2.166,2.166,0,0,0-.249.013c-.448.052-.613.26-.617.423-.006.239.33.4.718.581.59.278,1.324.625,1.32,1.423C12.854,4.548,11.86,5.226,10.327,5.226Zm3.983-.077H12.783L14.965.463a.665.665,0,0,1,.619-.371h1.242L18,5.147H16.654l-.176-.755H14.613l-.3.755ZM15.8,1.458h0l-.766,1.9h1.206l-.44-1.9ZM7.71,5.148H6.256L7.458.092H8.912L7.71,5.147Zm-3.232,0H2.941L1.781,1.114A.557.557,0,0,0,1.435.67,6.544,6.544,0,0,0,0,.239L.035.092H2.51a.662.662,0,0,1,.67.516l.613,2.926L5.307.092H6.834L4.478,5.147Z" transform="translate(0 0)"/>
        </g>
      </g>
    </g>
  </g>
</svg>
