<svg id="vkontakte" xmlns="http://www.w3.org/2000/svg" viewBox="0 0 32 32">
  <defs>
    <style>
      .cls-1 {
        fill: #999;
      }
    </style>
  </defs>
  <path id="Shape" class="cls-1" d="M16,32A16,16,0,0,1,4.687,4.687,16,16,0,1,1,27.313,27.313,15.9,15.9,0,0,1,16,32Zm1.7-13.4c.414,0,.839.51,1.289,1.05a5.884,5.884,0,0,0,.967,1A1.686,1.686,0,0,0,20.9,21h2.434a.9.9,0,0,0,.634-.354.618.618,0,0,0-.1-.559.061.061,0,0,1-.012-.018.056.056,0,0,0-.011-.016,14.136,14.136,0,0,0-1.712-2.044c-1.269-1.224-1.272-1.306-.077-2.911q.1-.144.226-.307c.109-.147.233-.314.362-.493,1.319-1.832,1.4-2.439,1.334-2.637-.03-.115-.216-.171-.567-.171H20.522a.363.363,0,0,0-.2.045.757.757,0,0,0-.178.229l-.023.058a16.688,16.688,0,0,1-.944,2.065c-1.2,2.123-1.643,2.123-1.789,2.123a.369.369,0,0,1-.189-.057c-.412-.29-.4-.968-.39-1.567v-.363c0-.338.012-.637.022-.9,0-.106.008-.2.011-.3.045-1.209.034-1.564-.5-1.7A4.055,4.055,0,0,0,15.166,11h-.378a4.409,4.409,0,0,0-1.723.217,1.06,1.06,0,0,0-.322.285,1.176,1.176,0,0,1,.756.434,2.719,2.719,0,0,1,.277,1.291c.039.73.076,2.457-.422,2.74a.491.491,0,0,1-.222.057c-.423,0-.945-.628-1.8-2.169a17.675,17.675,0,0,1-.9-1.921l-.031-.076a.521.521,0,0,0-.511-.389H7.431a.46.46,0,0,0-.386.171.305.305,0,0,0-.014.3c.008.035,1.939,4.7,4.089,7.021a5.894,5.894,0,0,0,4.1,2.032h1.111a.566.566,0,0,0,.5-.594c0-1.424.544-1.714.711-1.769l.017,0A.63.63,0,0,1,17.7,18.6Z"/>
</svg>
