<svg xmlns="http://www.w3.org/2000/svg" viewBox="0 0 40 40">
  <defs>
    <style>
      .cls-1 {
        fill: #4ea9b5;
      }

      .cls-2 {
        fill: #fff;
      }
    </style>
  </defs>
  <g id="acquiring" transform="translate(-333 -1414)">
    <circle id="oval" class="cls-1" cx="20" cy="20" r="20" transform="translate(333 1414)"/>
    <g id="icon" transform="translate(342 1425.5)">
      <path id="Rectangle" class="cls-2" d="M20,17H2a2,2,0,0,1-2-2V2A2,2,0,0,1,2,0H20a2,2,0,0,1,2,2V15A2,2,0,0,1,20,17ZM2,2V15H20V2Z" transform="translate(0 0)"/>
      <path id="Rectangle_Copy_6" data-name="Rectangle Copy 6" class="cls-2" d="M20,7H2A2,2,0,0,1,0,5V2A2,2,0,0,1,2,0H20a2,2,0,0,1,2,2V5A2,2,0,0,1,20,7ZM2,2V5H20V2Z" transform="translate(0)"/>
    </g>
  </g>
</svg>
