<svg xmlns="http://www.w3.org/2000/svg" viewBox="0 0 40 40">
  <defs>
    <style>
      .cls-1 {
        fill: #e60028;
      }

      .cls-2 {
        fill: #fff;
      }
    </style>
  </defs>
  <g id="banking" transform="translate(-333 -729)">
    <circle id="oval" class="cls-1" cx="20" cy="20" r="20" transform="translate(333 729)"/>
    <g id="icon" transform="translate(343 739.5)">
      <path id="Rectangle" class="cls-2" d="M18,15H2a2,2,0,0,1-2-2V2A2,2,0,0,1,2,0H18a2,2,0,0,1,2,2V13A2,2,0,0,1,18,15ZM2,2V13H18V2Z" transform="translate(0 4)"/>
      <path id="Rectangle-2" data-name="Rectangle" class="cls-2" d="M8,6H2A2,2,0,0,1,0,4V2A2,2,0,0,1,2,0H8a2,2,0,0,1,2,2V4A2,2,0,0,1,8,6ZM2,2V4H8V2Z" transform="translate(5)"/>
    </g>
  </g>
</svg>
