<svg xmlns="http://www.w3.org/2000/svg" viewBox="0 0 40 40">
  <defs>
    <style>
      .cls-1 {
        fill: #b7247b;
      }

      .cls-2 {
        fill: #fff;
      }
    </style>
  </defs>
  <g id="budget" transform="translate(-336 -1334)">
    <circle id="oval" class="cls-1" cx="20" cy="20" r="20" transform="translate(336 1334)"/>
    <path id="icon" class="cls-2" d="M10.972,20a5.111,5.111,0,0,1-3.319-1.353,1.82,1.82,0,0,1-.266-.319,2.328,2.328,0,0,1-.14-2.293,5.772,5.772,0,0,1,.616-1.1c.061-.091.13-.189.216-.309l.192-.267,0-.005.067-.093.041-.057.02-.027a7.431,7.431,0,0,0-.319-1.023c-.3.1-.522.172-.73.232a6.067,6.067,0,0,1-1.66.289l-.131,0a5,5,0,0,1-3.338-1.626A7.253,7.253,0,0,1,.16,8.132,9.5,9.5,0,0,1,1.3,1.582a1.724,1.724,0,0,1,2.866-.2c.119.153.625.841.837,1.13l.013.018c.16.215.3.407.443.586.008-.021.016-.041.025-.06a3.194,3.194,0,0,1-.068-.312,2.122,2.122,0,0,1,.437-1.722A1.837,1.837,0,0,1,6,.874,3.347,3.347,0,0,1,8.277.017,2.5,2.5,0,0,1,10.311.9,1.959,1.959,0,0,1,10.84,2.17l.034.03.1.086.043-.038c.041-.036.082-.071.124-.106A2.155,2.155,0,0,1,11.635.9a1.765,1.765,0,0,1,.3-.281,3.109,3.109,0,0,1,3.983.207,1.8,1.8,0,0,1,.191.205,2.122,2.122,0,0,1,.428,1.71,2.866,2.866,0,0,1-.068.309c.014.034.029.069.042.1.116-.151.246-.323.432-.573.095-.129.285-.39.46-.631.162-.223.315-.434.359-.493A1.719,1.719,0,0,1,20.488,1.4c1.148,1.4,1.834,5.309,1.361,7.753-.586,3.544-3.28,4.416-5.437,4.523l-.147,0a6.094,6.094,0,0,1-1.711-.289c-.212-.062-.432-.131-.692-.219a7.387,7.387,0,0,0-.25.944l.161.221.008.011.166.227c.1.145.2.277.28.4a4.718,4.718,0,0,1,.821,1.706,2.172,2.172,0,0,1-.373,1.62,1.84,1.84,0,0,1-.3.359A5.463,5.463,0,0,1,11.023,20ZM8.933,11.008a.135.135,0,0,1,.109.034A9.028,9.028,0,0,1,10.2,14.567a2.816,2.816,0,0,1-.549.923c-.468.646-1.049,1.45-.81,1.814a3.389,3.389,0,0,0,2.134.878H11a3.762,3.762,0,0,0,2.2-.878c.253-.4-.409-1.3-.892-1.956a3.072,3.072,0,0,1-.494-.781,8.435,8.435,0,0,1,1.048-3.525.135.135,0,0,1,.109-.034,4.691,4.691,0,0,1,1.033.294l.379.13a6.573,6.573,0,0,0,1.882.424h.077a3.639,3.639,0,0,0,3.772-3.012,10.448,10.448,0,0,0-.968-6.268c-.086.115-.192.262-.316.433A31.549,31.549,0,0,1,16.454,6,6.493,6.493,0,0,1,13.347,8.17a2.551,2.551,0,0,1-.472-2.621,1.377,1.377,0,0,1,1.052-1.013,2.078,2.078,0,0,1,.919.478A1.5,1.5,0,0,0,14.6,3.389a2.174,2.174,0,0,1,.132-.7c.069-.214.118-.368.016-.5a1.408,1.408,0,0,0-.953-.374,1.393,1.393,0,0,0-.839.281c-.115.136-.067.325-.02.508.052.2.1.4-.077.5a5.3,5.3,0,0,0-1.886,2.009A5.669,5.669,0,0,0,9.091,3.1c-.208-.1-.15-.3-.089-.51.052-.178.106-.362-.007-.495a.875.875,0,0,0-.7-.249,1.74,1.74,0,0,0-1.087.343c-.1.129-.054.283.015.5a2.161,2.161,0,0,1,.132.7,1.5,1.5,0,0,0-.241,1.625,3.147,3.147,0,0,1,.915-.527A1.379,1.379,0,0,1,9.08,5.5a2.552,2.552,0,0,1-.473,2.62c-2-.41-4.27-3.511-5.361-5-.175-.239-.327-.446-.44-.592a7.635,7.635,0,0,0-.92,5.261,5.26,5.26,0,0,0,1.638,3.018,3.507,3.507,0,0,0,2.037,1.046h.077a6.573,6.573,0,0,0,1.883-.424L7.9,11.3A4.7,4.7,0,0,1,8.933,11.008Z" transform="translate(345 1345)"/>
  </g>
</svg>
