<svg xmlns="http://www.w3.org/2000/svg" xmlns:xlink="http://www.w3.org/1999/xlink" viewBox="0 0 40 40">
  <defs>
    <style>
      .cls-1 {
        fill: none;
      }

      .cls-2 {
        fill: #adc116;
      }

      .cls-3 {
        fill: #fff;
      }

      .cls-4 {
        clip-path: url(#clip-path);
      }
    </style>
    <clipPath id="clip-path">
      <rect id="Mask" class="cls-1" width="20" height="14" rx="1"/>
    </clipPath>
  </defs>
  <g id="cashback" transform="translate(-364 -347)">
    <circle id="oval" class="cls-2" cx="20" cy="20" r="20" transform="translate(364 347)"/>
    <g id="icon">
      <g id="Group_4_Copy_9" data-name="Group 4 Copy 9" transform="translate(373 356)">
        <path id="Rectangle" class="cls-3" d="M20,16H2a2,2,0,0,1-2-2V2A2,2,0,0,1,2,0H20a2,2,0,0,1,2,2V14A2,2,0,0,1,20,16ZM2,2V14H20V2Z" transform="translate(0)"/>
        <g id="Oval_Oval_Copy_2_Oval_Copy_Oval_Copy_3_Mask" data-name="Oval + Oval Copy 2 + Oval Copy + Oval Copy 3 Mask" transform="translate(1 1)">
          <rect id="Mask-2" data-name="Mask" class="cls-1" width="20" height="14" rx="1"/>
          <g id="Oval_Oval_Copy_2_Oval_Copy_Oval_Copy_3_Mask-2" data-name="Oval + Oval Copy 2 + Oval Copy + Oval Copy 3 Mask" class="cls-4">
            <path id="Oval-2" data-name="Oval" class="cls-3" d="M3.1,6.5A3.179,3.179,0,0,1,0,3.25,3.179,3.179,0,0,1,3.1,0a3.179,3.179,0,0,1,3.1,3.25A3.179,3.179,0,0,1,3.1,6.5ZM3.25,1.3A1.86,1.86,0,0,0,1.5,3.25,1.86,1.86,0,0,0,3.25,5.2,1.861,1.861,0,0,0,5,3.25,1.861,1.861,0,0,0,3.25,1.3Z" transform="translate(-1.905 -2)"/>
            <path id="Oval_Copy_2" data-name="Oval Copy 2" class="cls-3" d="M3.1,6.5A3.179,3.179,0,0,1,0,3.25,3.179,3.179,0,0,1,3.1,0a3.179,3.179,0,0,1,3.1,3.25A3.179,3.179,0,0,1,3.1,6.5Zm0-5.2A1.827,1.827,0,0,0,1.428,3.25,1.827,1.827,0,0,0,3.1,5.2,1.827,1.827,0,0,0,4.762,3.25,1.827,1.827,0,0,0,3.1,1.3Z" transform="translate(15.238 -2)"/>
            <path id="Oval_Copy" data-name="Oval Copy" class="cls-3" d="M3.1,6.5A3.179,3.179,0,0,1,0,3.25,3.179,3.179,0,0,1,3.1,0a3.179,3.179,0,0,1,3.1,3.25A3.179,3.179,0,0,1,3.1,6.5Zm0-5.2A1.827,1.827,0,0,0,1.428,3.25,1.827,1.827,0,0,0,3.1,5.2,1.827,1.827,0,0,0,4.762,3.25,1.827,1.827,0,0,0,3.1,1.3Z" transform="translate(15.238 9)"/>
            <path id="Oval_Copy_3" data-name="Oval Copy 3" class="cls-3" d="M3.262,6.5A3.25,3.25,0,1,1,6.524,3.25,3.26,3.26,0,0,1,3.262,6.5ZM3.25,1.3A1.86,1.86,0,0,0,1.5,3.25,1.86,1.86,0,0,0,3.25,5.2,1.861,1.861,0,0,0,5,3.25,1.861,1.861,0,0,0,3.25,1.3Z" transform="translate(-1.905 9)"/>
          </g>
        </g>
        <path id="Oval_2" data-name="Oval 2" class="cls-3" d="M3,8A2.663,2.663,0,0,1,.858,6.81,4.767,4.767,0,0,1,0,4,4.765,4.765,0,0,1,.858,1.19,2.664,2.664,0,0,1,3,0,2.665,2.665,0,0,1,5.142,1.19,4.764,4.764,0,0,1,6,4,4.766,4.766,0,0,1,5.142,6.81,2.664,2.664,0,0,1,3,8Zm.01-6.246c-.6,0-1.25.9-1.25,2.25s.646,2.25,1.25,2.25S4.26,5.35,4.26,4,3.613,1.754,3.01,1.754Z" transform="translate(8 4)"/>
      </g>
      <g id="Group_Copy" data-name="Group Copy" transform="translate(388.186 377.243) rotate(135)">
        <path id="Path_6" data-name="Path 6" class="cls-3" d="M1.472,5.747a.863.863,0,0,1-1.22-1.22L4.528.253a.863.863,0,0,1,1.22,1.22Z" transform="translate(0 0)"/>
        <path id="Path_7" data-name="Path 7" class="cls-3" d="M4.421,1.577.782,1.6A.785.785,0,0,1,.774.027L6,0,5.926,5.227A.778.778,0,1,1,4.369,5.2Z" transform="translate(0 0)"/>
      </g>
    </g>
  </g>
</svg>
