<svg xmlns="http://www.w3.org/2000/svg" viewBox="0 0 40 40">
  <defs>
    <style>
      .cls-1 {
        fill: #e2516b;
      }

      .cls-2 {
        fill: none;
        stroke: #fff;
        stroke-miterlimit: 10;
        stroke-width: 2px;
      }

      .cls-3 {
        fill: #fff;
      }
    </style>
  </defs>
  <g id="deposit" transform="translate(-336 -649)">
    <circle id="oval" class="cls-1" cx="20" cy="20" r="20" transform="translate(336 649)"/>
    <g id="icon" transform="translate(347.4 660.5)">
      <rect id="Rectangle" class="cls-2" width="17.182" height="17" rx="1"/>
      <path id="Rectangle_Copy_3" data-name="Rectangle Copy 3" class="cls-3" d="M9.545,11.333H1.909A1.9,1.9,0,0,1,0,9.444V1.889A1.9,1.9,0,0,1,1.909,0H9.545a1.9,1.9,0,0,1,1.909,1.889V9.444A1.9,1.9,0,0,1,9.545,11.333ZM1.909,1.889V9.444H9.545V1.889Z" transform="translate(2.864 2.833)"/>
      <path id="Rectangle_Copy_4" data-name="Rectangle Copy 4" class="cls-3" d="M3.1,5.667H1.67A1.561,1.561,0,0,1,.463,5.1,2.039,2.039,0,0,1,0,3.777V1.889A1.778,1.778,0,0,1,1.67,0H3.1A1.562,1.562,0,0,1,4.31.572a2.037,2.037,0,0,1,.463,1.317V3.777A1.778,1.778,0,0,1,3.1,5.667ZM1.909,1.889V3.777h.954V1.889Z" transform="translate(16.227 1.889)"/>
      <path id="Rectangle_Copy_5" data-name="Rectangle Copy 5" class="cls-3" d="M3.1,5.667H1.67A1.561,1.561,0,0,1,.463,5.1,2.039,2.039,0,0,1,0,3.777V1.889A1.778,1.778,0,0,1,1.67,0H3.1A1.562,1.562,0,0,1,4.31.572a2.037,2.037,0,0,1,.463,1.317V3.777A1.778,1.778,0,0,1,3.1,5.667ZM1.909,1.889V3.777h.954V1.889Z" transform="translate(16.227 9.444)"/>
    </g>
  </g>
</svg>
