<svg xmlns="http://www.w3.org/2000/svg" viewBox="0 0 40 40">
  <defs>
    <style>
      .cls-1 {
        fill: #38908c;
      }

      .cls-2 {
        fill: #fff;
      }
    </style>
  </defs>
  <g id="other_in" transform="translate(-364 -477)">
    <circle id="oval" class="cls-1" cx="20" cy="20" r="20" transform="translate(364 477)"/>
    <g id="icon" transform="translate(378 491)">
      <path id="Path_6" data-name="Path 6" class="cls-2" d="M-1.816-12.1a1.006,1.006,0,0,1,1.4-.018A.953.953,0,0,1-.4-10.747L-10.416-.684a1.006,1.006,0,0,1-1.4.018.953.953,0,0,1-.019-1.37Z" transform="translate(12.116 12.391)"/>
      <path id="Path_7" data-name="Path 7" class="cls-2" d="M-6.135-2.189h5.067a.98.98,0,0,1,.99.968.98.98,0,0,1-.99.968H-8.116V-7.032A.98.98,0,0,1-7.126-8a.98.98,0,0,1,.99.968Z" transform="translate(8.116 12.252)"/>
    </g>
  </g>
</svg>
