<svg xmlns="http://www.w3.org/2000/svg" viewBox="0 0 40 40">
  <defs>
    <style>
      .cls-1 {
        fill: #5cad54;
      }

      .cls-2 {
        fill: #fff;
      }
    </style>
  </defs>
  <g id="percent" transform="translate(-364 -412)">
    <circle id="oval" class="cls-1" cx="20" cy="20" r="20" transform="translate(364 412)"/>
    <g id="icon" transform="translate(377 425)">
      <g id="Group" transform="translate(0 0)">
        <path id="_7G" data-name="7G" class="cls-2" d="M3,6A3,3,0,1,1,6,3,3.006,3.006,0,0,1,3,6ZM3,2A1,1,0,1,0,4,3,1,1,0,0,0,3,2Z" transform="translate(0 0)"/>
        <path id="_7G_Copy" data-name="7G Copy" class="cls-2" d="M3,6A3,3,0,1,1,6,3,3.006,3.006,0,0,1,3,6ZM3,2A1,1,0,1,0,4,3,1,1,0,0,0,3,2Z" transform="translate(8 8.001)"/>
      </g>
      <g id="Group_3" data-name="Group 3" transform="translate(0 0)">
        <g id="Group_Copy_2" data-name="Group Copy 2">
          <path id="Path_6" data-name="Path 6" class="cls-2" d="M-1.707-13.707a1,1,0,0,1,1.414,0,1,1,0,0,1,0,1.414l-12,12a1,1,0,0,1-1.414,0,1,1,0,0,1,0-1.414Z" transform="translate(14 14)"/>
        </g>
      </g>
    </g>
  </g>
</svg>
