<svg xmlns="http://www.w3.org/2000/svg" viewBox="0 0 40 40">
  <defs>
    <style>
      .cls-1 {
        fill: #e2751b;
      }

      .cls-2 {
        fill: #fff;
      }
    </style>
  </defs>
  <g id="staff" transform="translate(-336 -569)">
    <circle id="oval" class="cls-1" cx="20" cy="20" r="20" transform="translate(336 569)"/>
    <g id="icon" transform="translate(346 581)">
      <path id="Rectangle" class="cls-2" d="M16.105,16H1.895A1.891,1.891,0,0,1,0,14.118V1.882A1.891,1.891,0,0,1,1.895,0H16.105A1.891,1.891,0,0,1,18,1.882V14.118A1.891,1.891,0,0,1,16.105,16ZM1.895,1.882V14.118H16.105V1.882Z" transform="translate(1 0)"/>
      <path id="Rectangle-2" data-name="Rectangle" class="cls-2" d="M5.94,6.588H1.7A1.8,1.8,0,0,1,0,4.706V1.882A1.8,1.8,0,0,1,1.7,0H5.94a1.8,1.8,0,0,1,1.7,1.882V4.706A1.8,1.8,0,0,1,5.94,6.588ZM1.909,1.882V4.706H5.728V1.882Z" transform="translate(14 4.5)"/>
      <path id="Path_Copy" data-name="Path Copy" class="cls-1" d="M0,0V2.824H3.818V0Z" transform="translate(15.909 6.382)"/>
    </g>
  </g>
</svg>
