<svg xmlns="http://www.w3.org/2000/svg" viewBox="0 0 40 40">
  <defs>
    <style>
      .cls-1 {
        fill: #504586;
      }

      .cls-2 {
        fill: #fff;
      }
    </style>
  </defs>
  <g id="transfer" transform="translate(-336 -809)">
    <circle id="oval" class="cls-1" cx="20" cy="20" r="20" transform="translate(336 809)"/>
    <g id="icon" transform="translate(347 819.5)">
      <g id="Group_Copy_3" data-name="Group Copy 3" transform="translate(5.962 6.859)">
        <path id="Path_6" data-name="Path 6" class="cls-2" d="M1.705,11.845A1,1,0,0,1,.3,11.863a.97.97,0,0,1-.019-1.386L10.333.3A1,1,0,0,1,11.738.278a.97.97,0,0,1,.019,1.386Z" transform="translate(0)"/>
        <path id="Path_7" data-name="Path 7" class="cls-2" d="M6.077,1.96H.994A.987.987,0,0,1,0,.98.987.987,0,0,1,.994,0H8.064V6.859a.994.994,0,0,1-1.987,0Z" transform="translate(3.974 0)"/>
      </g>
      <g id="Group_Copy_4" data-name="Group Copy 4" transform="translate(0)">
        <path id="Path_6-2" data-name="Path 6" class="cls-2" d="M1.682.3A.97.97,0,0,0,.3.282,1,1,0,0,0,.278,1.687L10.19,12.011a.97.97,0,0,0,1.386.019,1,1,0,0,0,.019-1.405Z" transform="translate(12.311) rotate(90)"/>
        <path id="Path_7-2" data-name="Path 7" class="cls-2" d="M5.993,5.962H.98a.994.994,0,0,0,0,1.987H7.953V.994a.98.98,0,1,0-1.96,0Z" transform="translate(7.949 3.919) rotate(90)"/>
      </g>
    </g>
  </g>
</svg>
