<svg xmlns="http://www.w3.org/2000/svg" viewBox="0 0 169.562 52">
  <defs>
    <style>
      .cls-1 {
        fill: #fff;
      }

      .cls-2 {
        fill: #e60028;
      }

      .cls-3 {
        fill: #fefefe;
      }
    </style>
  </defs>
  <g id="logo" transform="translate(-509 -190)">
    <path id="Fill_1" data-name="Fill 1" class="cls-1" d="M0,34H34V0H0Z" transform="translate(509 190)"/>
    <path id="sg" d="M24.89,15.783a9.313,9.313,0,0,1-6.15-2.171,7.474,7.474,0,0,1-2.572-5.72,7.474,7.474,0,0,1,2.572-5.7A9.285,9.285,0,0,1,24.89,0a9.213,9.213,0,0,1,6.137,2.194,7.5,7.5,0,0,1,2.543,5.7,7.5,7.5,0,0,1-2.543,5.72A9.243,9.243,0,0,1,24.89,15.783Zm0-13.237a6.121,6.121,0,0,0-4.228,1.547,5.139,5.139,0,0,0-1.622,3.8,5.188,5.188,0,0,0,1.585,3.839,6.074,6.074,0,0,0,4.265,1.527,5.992,5.992,0,0,0,4.235-1.534A5.21,5.21,0,0,0,30.7,7.892a5.182,5.182,0,0,0-1.57-3.8A5.988,5.988,0,0,0,24.89,2.546ZM45.068,15.765A9.433,9.433,0,0,1,38.8,13.594a7.391,7.391,0,0,1-2.513-5.72,7.451,7.451,0,0,1,2.534-5.682A9.406,9.406,0,0,1,45.068,0a11.091,11.091,0,0,1,6.968,2.225L50.554,4.415a8.542,8.542,0,0,0-5.4-1.831A6.238,6.238,0,0,0,40.813,4.11a5.056,5.056,0,0,0-1.594,3.764c0,3.172,2.4,5.3,5.968,5.3a8.839,8.839,0,0,0,5.489-1.785l1.476,2.186A11.394,11.394,0,0,1,45.068,15.765Zm29.344-.4h-3L78.7.455h2.912L88.92,15.367l-2.994,0-1.714-3.621H76.127l-1.715,3.621ZM80.178,3.28,77.284,9.324h5.772Zm33.093,12.088h-2.779V.455h2.779V7.414L120.794.455H124.2l-7.739,7.179,8.059,7.73-3.728,0-7.522-7.236v7.236Zm-110.5,0H0V.455H9.282c3.186,0,5.327,2.038,5.327,5.072s-1.991,4.829-5.327,4.829H2.773v5.008Zm0-12.443v4.97H9.441a2.206,2.206,0,0,0,2.335-2.325A2.436,2.436,0,0,0,9.282,2.923ZM103.61,15.367V8.987h-9.8v6.379H91.034V.455H93.81V6.542h9.8V.455h2.776v14.91Zm-39.049-.024H55.284V.444H68.769V2.778H58.061V5.922h6.5a6.213,6.213,0,0,1,3.986,1.209,4.346,4.346,0,0,1,1.535,3.5C70.082,13.493,67.915,15.342,64.561,15.342Zm-6.5-6.953v4.488h6.66c1.86,0,2.727-.714,2.727-2.246,0-1.383-1.045-2.243-2.727-2.243Z" transform="translate(554.04 199.071)"/>
    <path id="title" d="M107.66,5.174a2.191,2.191,0,0,1-2.466-2.128V.152h.908v2.8c0,.881.568,1.386,1.558,1.386s1.566-.505,1.566-1.386V.152h.9V3.047C110.13,4.339,109.161,5.174,107.66,5.174Zm-6.354,0a2.67,2.67,0,0,1-2.854-2.586,2.862,2.862,0,0,1,5.7,0,2.457,2.457,0,0,1-.834,1.874A3.025,3.025,0,0,1,101.306,5.171Zm0-4.334a1.758,1.758,0,1,0,0,3.5,1.757,1.757,0,1,0,0-3.5ZM89.29,5.163a3.08,3.08,0,0,1-2.051-.712,2.421,2.421,0,0,1-.821-1.873A2.645,2.645,0,0,1,89.29.005a3.7,3.7,0,0,1,2.283.722l-.486.715a2.8,2.8,0,0,0-1.771-.58h-.059a1.727,1.727,0,0,0-1.882,1.717,1.752,1.752,0,0,0,1.954,1.729,3.366,3.366,0,0,0,1.4-.29V2.6h.879v1.89A4.318,4.318,0,0,1,89.29,5.163ZM8.564,5.153a3.046,3.046,0,0,1-2.009-.707,2.438,2.438,0,0,1-.842-1.867A2.665,2.665,0,0,1,8.564,0,2.656,2.656,0,0,1,11.4,2.579,2.624,2.624,0,0,1,8.564,5.153Zm0-4.321a1.756,1.756,0,1,0,0,3.5,1.755,1.755,0,1,0,0-3.5Zm32.9,4.318a3.076,3.076,0,0,1-2.046-.709,2.418,2.418,0,0,1-.82-1.868A2.641,2.641,0,0,1,41.459,0a3.656,3.656,0,0,1,2.276.722l-.482.715A2.737,2.737,0,0,0,41.486.858h-.059a1.723,1.723,0,0,0-1.876,1.715A1.749,1.749,0,0,0,41.5,4.3,3.488,3.488,0,0,0,42.9,4.01V2.592h.879V4.48A4.245,4.245,0,0,1,41.459,5.15Zm-26.35,0a3.073,3.073,0,0,1-2.046-.709,2.418,2.418,0,0,1-.82-1.868A2.641,2.641,0,0,1,15.108,0a3.609,3.609,0,0,1,2.274.729l-.481.714a2.808,2.808,0,0,0-1.768-.6A1.76,1.76,0,0,0,13.2,2.572,1.75,1.75,0,0,0,15.147,4.3a2.852,2.852,0,0,0,1.791-.587l.485.717A3.73,3.73,0,0,1,15.108,5.15ZM2.547,5.13A4.9,4.9,0,0,1,0,4.477l.352-.766a4.525,4.525,0,0,0,2.2.593c.912,0,1.457-.253,1.457-.678,0-.448-.7-.563-1.516-.7C1.38,2.747.115,2.54.115,1.435c0-.865.855-1.4,2.23-1.4A4.966,4.966,0,0,1,4.621.568L4.262,1.3a5.075,5.075,0,0,0-1.9-.443c-.857,0-1.31.182-1.31.527,0,.39.648.5,1.4.617,1.114.181,2.5.406,2.5,1.625C4.954,4.554,4.031,5.13,2.547,5.13Zm91.2-.1h-.908V.152h3.152a1.526,1.526,0,0,1,1.692,1.557,1.509,1.509,0,0,1-1.408,1.5l1.461,1.822-1.138,0-1.388-1.8H93.745v1.8Zm0-4.074V2.425h2.146c.548,0,.888-.274.888-.716a.708.708,0,0,0-.79-.749Zm18.561,4.073H111.4V.152h3.038a1.614,1.614,0,0,1,1.746,1.66,1.534,1.534,0,0,1-1.746,1.582h-2.13V5.033Zm0-4.075h0V2.586h2.183a.731.731,0,0,0,.765-.763.8.8,0,0,0-.818-.864h-2.13ZM68.572,5.022h-.98l2.38-4.87h.953L73.31,5.019l-.977,0-.562-1.185H69.133l-.561,1.185Zm1.884-3.95-.948,1.975h1.884ZM63.311,5.021H62.4V.151h3.146A1.52,1.52,0,0,1,67.234,1.7a1.5,1.5,0,0,1-1.4,1.5l1.454,1.817-1.137,0-1.38-1.795h-1.46V5.02Zm0-4.064h0V2.418h2.139c.546,0,.886-.274.886-.715a.706.706,0,0,0-.788-.746H63.311ZM51.468,5.021H50.58V.151h.926L54.692,3.82l.021-.008c-.052-.968-.057-1.682-.057-2.389V.151h.882V5.019h-.915L51.449,1.352l-.015.005c.035.722.035,1.979.035,2.392V5.02Zm31.983,0H78.845V.151H83.3V.957H79.752V2.136h2.754v.807H79.752V4.216h3.7v.8Zm-5.32,0h-4.17V.151h.905V4.216h3.264v.8Zm-16.686,0H56.838V.151h4.451V.957H57.742V2.136H60.5v.807H57.742V4.216h3.7v.8Zm-11.836,0H45V.151h4.454V.957H45.906V2.136h2.76v.807h-2.76V4.216h3.7v.8Zm-13.78,0H31.221V.151h4.452V.957H32.128V2.136h2.756v.807H32.128V4.216h3.7v.8Zm-8.239,0,0-4.072H25.6v-.8h4.89v.8H28.5V5.019h-.9Zm-2.4,0H20.583V.151h4.453V.957H21.488V2.136h2.758v.807H21.488V4.216h3.7v.8Zm-6.8,0,0-4.869h.906V5.019h-.9Z" transform="translate(510 236.826)"/>
    <g id="Group_2426" data-name="Group 2426">
      <g id="Group_2425" data-name="Group 2425">
        <path id="Fill_1_Copy" data-name="Fill 1 Copy" class="cls-2" d="M0,16H32V0H0Z" transform="translate(510 191)"/>
        <path id="Fill_2" data-name="Fill 2" d="M0,16H32V0H0Z" transform="translate(510 207)"/>
      </g>
      <path id="Fill_3" data-name="Fill 3" class="cls-3" d="M0,2H20V0H0Z" transform="translate(516 206)"/>
    </g>
  </g>
</svg>
